:SAMPLES-PER-SECOND 30
:FULLY-SPECIFIED
:DEGREES
379
root  71.6425 38.7566 1.21271 -5.84023 88.4485 -0.800964
RightUpLeg  4.42868 -7.85309 -0.30944
RightLeg  15.0797 7.66667 2.10273
RightFoot  -12.4735 -0.142092 -5.90685
RightToes  -3.0268e-009 0 -3.6325e-017
Spine  3.67232 1.98604 9.69601
Spine1  6.74277 3.6124 -5.45186
HEad  -19.0729 -2.30972 -1.33633
LeftShoulder1  -1.04332 5.96601 -36.1311
LeftArm  3.46254 16.3509 -36.4188
LeftForeArm  31.2282 -15.1976 -6.82998
LeftHand  -0.298371 11.4433 -4.33321
RightShoulder  -1.06113 -6.42326 29.8054
RightArm  24.6498 30.158 48.4632
RightForeArm  6.4599 33.4357 7.0658
RightHand  -0.509353 7.49278 -4.94153
LeftUpLeg  -15.4062 3.34885 2.82729
LeftLeg  -1.23291 -4.76147 0.710514
LeftFoot  1.57077 0.874569 -7.82283
LeftToes  2.52475e-009 -1.26109e-010 3.16044e-011
380
root  72.5884 38.6168 1.18248 -20.8644 88.2478 -15.6059
RightUpLeg  6.35605 -7.76731 -0.116039
RightLeg  14.9791 7.637 2.02559
RightFoot  -14.0544 -0.225405 -5.49914
RightToes  -3.0268e-009 0 -3.6325e-017
Spine  3.28539 1.73203 9.16804
Spine1  7.37528 3.25047 -5.05769
HEad  -19.5079 -2.01044 -1.20326
LeftShoulder1  -0.990397 5.85137 -35.9565
LeftArm  5.87044 15.8035 -36.8984
LeftForeArm  29.102 -16.9077 -6.17001
LeftHand  -0.262754 10.9888 -4.00645
RightShoulder  -1.10791 -6.5133 30.2855
RightArm  26.2468 27.5651 49.0939
RightForeArm  7.19603 32.3182 6.73195
RightHand  -0.473492 6.88006 -4.82275
LeftUpLeg  -15.2916 3.66664 3.11482
LeftLeg  -3.20935 -4.03453 0.69913
LeftFoot  2.20889 0.737439 -6.30677
LeftToes  2.52475e-009 -1.26109e-010 3.16044e-011
381
root  73.6187 38.3929 1.08468 -39.1831 87.8641 -34.1066
RightUpLeg  7.59105 -7.36972 0.459448
RightLeg  15.6693 7.19644 1.81488
RightFoot  -15.9285 -0.313424 -5.14643
RightToes  -3.0268e-009 0 -3.6325e-017
Spine  2.2295 1.56776 9.00768
Spine1  8.27934 2.8413 -4.21197
HEad  -19.7818 -1.77467 -1.45801
LeftShoulder1  -1.01929 5.89889 -36.3148
LeftArm  8.03377 14.5765 -37.0631
LeftForeArm  26.6819 -17.9531 -5.8004
LeftHand  -0.182039 9.66674 -3.34562
RightShoulder  -1.10374 -6.4929 30.3911
RightArm  28.5132 24.5228 49.6276
RightForeArm  5.69568 29.7413 6.15317
RightHand  -0.448157 6.87071 -4.57101
LeftUpLeg  -16.4023 3.82421 3.51756
LeftLeg  -0.606411 -2.72426 0.571753
LeftFoot  2.28868 0.611899 -5.23622
LeftToes  2.52475e-009 -1.26109e-010 3.16044e-011
382
root  74.6745 38.1971 0.953569 -40.2812 87.0994 -35.4494
RightUpLeg  8.95688 -6.68826 0.784114
RightLeg  15.9007 6.98599 1.55823
RightFoot  -17.4752 -0.36992 -4.66756
RightToes  -3.0268e-009 0 -3.6325e-017
Spine  1.17582 1.70272 9.54921
Spine1  9.10354 3.09356 -4.80715
HEad  -19.6506 -1.43813 -1.83396
LeftShoulder1  -0.985456 5.82816 -36.1612
LeftArm  9.96577 13.402 -37.3113
LeftForeArm  25.1697 -19.0482 -5.35535
LeftHand  -0.184371 9.58195 -3.36918
RightShoulder  -1.14223 -6.56825 30.7476
RightArm  30.3796 20.1275 49.8316
RightForeArm  4.83877 26.4225 5.40681
RightHand  -0.282276 6.27227 -3.15307
LeftUpLeg  -17.5979 3.72638 3.81182
LeftLeg  4.40778 -1.29648 0.629856
LeftFoot  3.06668 0.509632 -4.14561
LeftToes  2.52475e-009 -1.26109e-010 3.16044e-011
383
root  75.8167 37.9119 0.818474 -35.7648 85.9838 -31.401
RightUpLeg  9.7519 -5.09767 1.2723
RightLeg  17.0606 6.37871 1.14231
RightFoot  -19.3735 -0.430466 -4.28729
RightToes  -3.0268e-009 0 -3.6325e-017
Spine  0.00941899 2.12203 10.0496
Spine1  9.05019 3.55365 -5.22957
HEad  -18.9383 -1.46497 -2.01728
LeftShoulder1  -0.981031 5.82578 -36.018
LeftArm  11.5011 13.5482 -37.3244
LeftForeArm  23.5431 -21.5281 -4.17864
LeftHand  -0.286812 11.0055 -4.45764
RightShoulder  -1.15851 -6.58191 31.1049
RightArm  33.4008 15.9858 50.0007
RightForeArm  2.67896 20.468 5.37316
RightHand  -0.20532 5.71123 -2.44921
LeftUpLeg  -18.2309 3.74602 4.06199
LeftLeg  7.86645 0.35754 0.694513
LeftFoot  5.15602 0.203149 -1.74613
LeftToes  2.52475e-009 -1.26109e-010 3.16044e-011
384
root  76.9162 37.805 0.658788 -19.0043 84.8942 -15.1179
RightUpLeg  10.892 -1.9972 0.715597
RightLeg  17.0532 5.19707 0.740609
RightFoot  -20.6377 -0.334691 -2.39789
RightToes  -3.0268e-009 0 -3.6325e-017
Spine  -0.82111 2.54241 9.15134
Spine1  8.66179 4.07474 -6.10819
HEad  -17.9682 -0.698813 -2.46465
LeftShoulder1  -0.979462 5.83105 -35.8595
LeftArm  11.8121 14.0201 -36.9499
LeftForeArm  21.6157 -22.6568 -3.95554
LeftHand  -0.173605 9.83454 -3.02957
RightShoulder  -1.23428 -6.73525 31.6734
RightArm  27.2425 11.6629 49.5974
RightForeArm  11.2797 12.8193 8.25423
RightHand  -0.120679 4.35247 -1.7374
LeftUpLeg  -18.4721 4.75129 3.25125
LeftLeg  9.91846 0.104334 0.343535
LeftFoot  10.7633 -0.194737 0.710555
LeftToes  2.52475e-009 -1.26109e-010 3.16044e-011
385
root  78.0049 37.7016 0.48092 -4.56636 84.0279 -0.733765
RightUpLeg  11.5801 1.64477 -0.274495
RightLeg  18.7662 2.85176 0.555077
RightFoot  -21.6766 -0.157462 -0.141656
RightToes  -3.0268e-009 0 -3.6325e-017
Spine  -0.480891 2.69859 7.134
Spine1  7.41136 4.1313 -5.87202
HEad  -17.6177 -0.166165 -2.90479
LeftShoulder1  -1.01262 5.90534 -35.9345
LeftArm  11.5848 13.8456 -36.7381
LeftForeArm  20.0742 -22.8125 -4.03759
LeftHand  -0.168375 10.5647 -2.36102
RightShoulder  -1.30071 -6.86188 32.2128
RightArm  19.7131 8.02784 48.8747
RightForeArm  19.6843 3.52649 10.2153
RightHand  -0.142578 3.1233 -2.12819
LeftUpLeg  -18.682 4.75575 1.85443
LeftLeg  13.5367 1.04547 0.5156
LeftFoot  10.2918 -0.446755 2.03087
LeftToes  2.52475e-009 -1.26109e-010 3.16044e-011
386
root  78.9969 37.6585 0.138677 6.2816 83.1348 10.7639
RightUpLeg  11.8322 3.59603 -2.3334
RightLeg  22.4089 2.69976 1.05113
RightFoot  -21.7278 0.183249 3.66021
RightToes  -3.0268e-009 0 -3.6325e-017
Spine  1.06455 2.58968 6.52364
Spine1  6.41957 4.29358 -7.20254
HEad  -18.1024 -0.0327961 -3.04539
LeftShoulder1  -1.02829 5.93639 -36.0359
LeftArm  9.92564 12.4981 -37.1794
LeftForeArm  20.9601 -21.6039 -4.21913
LeftHand  -0.169163 10.3796 -2.48622
RightShoulder  -1.34703 -6.93962 32.6841
RightArm  15.4559 1.71392 47.2043
RightForeArm  26.0949 1.10257 8.2309
RightHand  -0.0469262 0.46811 -1.01206
LeftUpLeg  -18.0642 4.24208 0.0405976
LeftLeg  17.1289 2.08191 1.02837
LeftFoot  7.15169 -0.481974 2.67506
LeftToes  2.52475e-009 -1.26109e-010 3.16044e-011
387
root  79.8514 37.6912 -0.137107 17.1598 81.9123 22.1794
RightUpLeg  10.2875 3.8009 -5.56173
RightLeg  28.4683 4.72098 2.56905
RightFoot  -19.8018 0.445366 7.92607
RightToes  -3.0268e-009 0 -3.6325e-017
Spine  2.55485 2.68954 4.54215
Spine1  5.97897 4.3762 -7.77976
HEad  -19.1397 0.563441 -3.40204
LeftShoulder1  -1.03189 5.93898 -36.1343
LeftArm  8.9056 11.2735 -37.4609
LeftForeArm  21.3429 -21.4102 -4.24995
LeftHand  -0.143772 9.8211 -2.23997
RightShoulder  -1.35988 -6.95587 32.867
RightArm  11.2756 -5.24304 45.123
RightForeArm  27.9164 1.32097 6.18332
RightHand  -0.0556837 1.02893 -1.14115
LeftUpLeg  -16.4294 4.93772 -2.15846
LeftLeg  17.808 2.70791 1.22188
LeftFoot  5.13869 -0.398419 2.55243
LeftToes  2.52475e-009 -1.26109e-010 3.16044e-011
388
root  80.66 37.741 -0.29227 22.687 80.8792 28.2409
RightUpLeg  7.47653 3.26695 -8.53675
RightLeg  36.0829 7.02475 5.23348
RightFoot  -15.642 0.358599 12.4778
RightToes  -3.0268e-009 0 -3.6325e-017
Spine  3.46751 2.63626 1.86708
Spine1  6.28782 3.97667 -7.10655
HEad  -20.628 1.57937 -3.92044
LeftShoulder1  -0.98782 5.84493 -35.9643
LeftArm  9.02015 10.179 -37.6546
LeftForeArm  21.39 -21.7832 -4.15231
LeftHand  -0.163708 10.0511 -2.55245
RightShoulder  -1.38648 -7.01304 32.9847
RightArm  9.41555 -11.1151 42.6617
RightForeArm  26.1414 3.36339 5.04227
RightHand  -0.0440265 2.30548 -0.714718
LeftUpLeg  -14.7068 5.10766 -3.63226
LeftLeg  18.2424 3.34997 1.34343
LeftFoot  3.21388 -0.333351 2.41219
LeftToes  2.52475e-009 -1.26109e-010 3.16044e-011
389
root  81.3661 37.833 -0.506881 22.5708 79.4634 28.0397
RightUpLeg  2.82506 3.73105 -10.6067
RightLeg  44.213 7.81493 7.75396
RightFoot  -8.82881 -0.372489 14.5604
RightToes  -3.0268e-009 0 -3.6325e-017
Spine  4.64737 2.39772 0.613261
Spine1  5.33071 3.52413 -7.03664
HEad  -21.7045 3.28302 -4.756
LeftShoulder1  -0.996294 5.8619 -36.0161
LeftArm  10.2554 9.9361 -36.8886
LeftForeArm  20.2935 -23.281 -3.9851
LeftHand  -0.101937 9.08122 -1.57767
RightShoulder  -1.36533 -6.9887 32.6595
RightArm  10.7183 -15.3298 40.016
RightForeArm  25.457 5.73523 5.14186
RightHand  0.0789656 -0.0529022 1.66321
LeftUpLeg  -13.6621 5.41332 -4.37348
LeftLeg  18.4438 4.63976 1.61331
LeftFoot  1.21417 -0.0868162 0.752059
LeftToes  2.52475e-009 -1.26109e-010 3.16044e-011
390
root  82.0012 37.886 -0.608848 22.5012 78.7669 27.2556
RightUpLeg  -2.28976 3.95719 -11.5268
RightLeg  50.9451 7.01058 8.81656
RightFoot  -3.25151 -1.05069 14.5253
RightToes  -3.0268e-009 0 -3.6325e-017
Spine  4.62172 1.92689 -1.09878
Spine1  5.1836 2.71541 -6.11156
HEad  -23.0131 4.9665 -5.23966
LeftShoulder1  -0.954051 5.77885 -35.7146
LeftArm  9.80757 9.73629 -36.3166
LeftForeArm  20.4876 -25.1009 -4.28514
LeftHand  -0.100138 9.03563 -1.53493
RightShoulder  -1.40097 -7.07898 32.6726
RightArm  12.9024 -17.977 37.0138
RightForeArm  23.0438 8.28941 5.498
RightHand  0.260024 1.76037 3.88098
LeftUpLeg  -13.473 6.12721 -4.6772
LeftLeg  18.6979 4.58748 1.35082
LeftFoot  0.011931 -0.122029 1.23048
LeftToes  2.52475e-009 -1.26109e-010 3.16044e-011
391
root  82.6503 37.9284 -0.722741 22.6493 78.2177 27.4817
RightUpLeg  -5.67896 3.49279 -12.6444
RightLeg  55.178 5.87553 8.62535
RightFoot  -2.66251 -1.05402 13.5665
RightToes  -3.0268e-009 0 -3.6325e-017
Spine  4.59208 1.42125 -2.79259
Spine1  6.22957 1.87587 -5.24579
HEad  -24.8619 6.13943 -5.67249
LeftShoulder1  -0.926812 5.72257 -35.5559
LeftArm  6.51887 10.0205 -36.03
LeftForeArm  23.4941 -27.6132 -4.6792
LeftHand  -0.102112 8.94212 -1.59868
RightShoulder  -1.40205 -7.10116 32.4644
RightArm  14.3234 -19.8974 34.4163
RightForeArm  20.5482 10.9118 5.2782
RightHand  0.611775 3.43085 7.81528
LeftUpLeg  -12.3415 5.55231 -5.10376
LeftLeg  18.7901 5.47806 1.53625
LeftFoot  -0.955784 -0.146715 1.67387
LeftToes  2.52475e-009 -1.26109e-010 3.16044e-011
392
root  83.3724 38.107 -0.799105 21.9868 78.5216 27.5356
RightUpLeg  -7.01642 2.86999 -13.0214
RightLeg  56.097 4.98103 7.52449
RightFoot  -4.20629 -0.833594 12.8775
RightToes  -3.0268e-009 0 -3.6325e-017
Spine  4.28779 0.799063 -3.83173
Spine1  7.66647 0.989346 -3.89862
HEad  -25.79 7.04159 -6.0263
LeftShoulder1  -0.914794 5.70553 -35.3406
LeftArm  7.0855 8.78336 -35.6392
LeftForeArm  22.0247 -27.9435 -4.83526
LeftHand  -0.0508755 8.25449 -0.251586
RightShoulder  -1.37269 -7.0624 32.0692
RightArm  13.5132 -21.5036 33.4145
RightForeArm  19.7938 12.0442 4.65243
RightHand  0.508094 2.53732 7.1634
LeftUpLeg  -9.71486 5.33907 -5.06178
LeftLeg  17.5581 5.29716 1.20485
LeftFoot  -1.66042 -0.141503 1.79138
LeftToes  2.52475e-009 -1.26109e-010 3.16044e-011
393
root  83.818 38.173 -0.830371 19.3355 78.4471 23.894
RightUpLeg  -10.8409 3.34996 -12.3679
RightLeg  55.808 4.13889 6.13959
RightFoot  -4.26563 -0.739373 11.4136
RightToes  -3.0268e-009 0 -3.6325e-017
Spine  4.76678 0.529935 -3.96587
Spine1  6.5147 0.579627 -3.54632
HEad  -25.751 7.33183 -6.16635
LeftShoulder1  -0.912541 5.70871 -35.1787
LeftArm  6.33766 8.10066 -35.4092
LeftForeArm  22.1376 -28.5429 -4.96643
LeftHand  -0.0530699 8.23773 -0.290687
RightShoulder  -1.37449 -7.07249 32.0113
RightArm  10.8598 -22.1847 32.869
RightForeArm  17.6498 11.6851 3.95397
RightHand  0.518531 4.15774 5.45563
LeftUpLeg  -9.93927 5.67029 -4.44808
LeftLeg  17.6209 4.97952 0.915097
LeftFoot  -2.33893 -0.161809 2.22953
LeftToes  2.52475e-009 -1.26109e-010 3.16044e-011
